<svg width="100" height="100" viewBox="0 0 24 24" fill="none" xmlns="http://www.w3.org/2000/svg">
  <circle cx="12" cy="12" r="5" stroke="black" stroke-width="2" fill="yellow"/>
  <path d="M5 16c0-1.657 1.343-3 3-3h6c1.657 0 3 1.343 3 3s-1.343 3-3 3H8c-1.657 0-3-1.343-3-3z" stroke="black" stroke-width="2" fill="lightgray"/>
  <line x1="12" y1="1" x2="12" y2="5" stroke="black" stroke-width="2"/>
  <line x1="12" y1="19" x2="12" y2="23" stroke="black" stroke-width="2"/>
  <line x1="1" y1="12" x2="5" y2="12" stroke="black" stroke-width="2"/>
  <line x1="19" y1="12" x2="23" y2="12" stroke="black" stroke-width="2"/>
  <line x1="4.22" y1="4.22" x2="6.34" y2="6.34" stroke="black" stroke-width="2"/>
  <line x1="17.66" y1="17.66" x2="19.78" y2="19.78" stroke="black" stroke-width="2"/>
  <line x1="4.22" y1="19.78" x2="6.34" y2="17.66" stroke="black" stroke-width="2"/>
  <line x1="17.66" y1="6.34" x2="19.78" y2="4.22" stroke="black" stroke-width="2"/>
</svg>